<svg width="38" height="38" viewBox="0 0 512 512" xmlns="http://www.w3.org/2000/svg">
  <defs>
    <radialGradient cx="0%" cy="50%" fx="0%" fy="50%" r="100%" id="a">
      <stop stop-color="#5D9DF6" offset="0%"/>
      <stop stop-color="#006FFF" offset="100%"/>
    </radialGradient>
  </defs>
  <g fill="none" fill-rule="evenodd">
    <rect fill="url(#a)" width="512" height="512" rx="256"/>
    <path d="M169.209772 184.531136c47.933-46.930403 125.647747-46.930403 173.580745 0l5.768814 5.648149c2.39665 2.34652 2.39665 6.150981 0 8.497502L328.82537 217.99798c-1.198325 1.173261-3.141194 1.173261-4.339519 0l-7.938573-7.772525c-33.439258-32.739822-87.655008-32.739822-121.094267 0l-8.501555 8.323733c-1.198326 1.17326-3.141195 1.17326-4.339519 0l-19.733961-19.321193c-2.39665-2.346521-2.39665-6.150982 0-8.497502l6.331796-6.199357Zm214.39244 39.95827 17.563263 17.195959c2.396638 2.346509 2.396652 6.150947.000031 8.497472l-79.193968 77.538711c-2.396633 2.346538-6.28237 2.346564-8.679037.000061l-.000031-.000031-56.20706-55.031481c-.599162-.58663-1.570597-.58663-2.169759 0-.000004.000004-.000007.000008-.000011.000011l-56.205863 55.03144c-2.396626 2.346544-6.282364 2.346583-8.679038.000086-.000014-.000014-.000029-.000028-.000044-.000043l-79.196171-77.539742c-2.396649-2.34652-2.396649-6.150981 0-8.497501l17.563295-17.19593c2.396649-2.34652 6.282387-2.34652 8.679037 0l56.207878 55.03225c.599163.58663 1.570596.58663 2.169759 0 .000009-.000009.000017-.000017.000026-.000024l56.205061-55.032226c2.396595-2.346574 6.282333-2.346662 8.679038-.000196l.000099.000099 56.207804 55.032323c.599162.586629 1.570597.586629 2.169759 0l56.206895-55.031238c2.39665-2.346521 6.282387-2.346521 8.679037 0Z" fill="#FFF" fill-rule="nonzero"/>
  </g>
</svg>