<svg xmlns="http://www.w3.org/2000/svg" xmlns:xlink="http://www.w3.org/1999/xlink"  width="38" height="38" viewBox="-3 -1 38 38"><defs><path id="A" d="M30.6 7.754L18.45.67a4.09 4.09 0 0 0-4.127 0L2.173 7.754a4.18 4.18 0 0 0-2.064 3.61v14.172c0 1.489.787 2.865 2.064 3.61l12.15 7.085a4.09 4.09 0 0 0 4.126 0l12.15-7.085c1.277-.745 2.063-2.121 2.063-3.61V11.365c0-1.49-.786-2.866-2.063-3.61"/></defs><g fill="none" fill-rule="evenodd"><g transform="translate(0 .012)"><mask id="B" fill="#fff"><use xlink:href="#A"/></mask><use fill="#fff" xlink:href="#A"/><g mask="url(#B)"><path fill="#c9f951" d="M3.244 6.426l3.558-2.053-1.509 5.729z"/><path fill="#74f473" d="M11.546 1.805L8.572 8.387l-3.279 1.715 1.509-5.729z"/><path fill="#5effea" d="M16.629-1.104l-5.083 2.909-3.127 6.751 9.485-4.183z"/><path fill="#ffba48" d="M-.437 8.346l.038 3.643 5.692-1.887-2.049-3.676z"/><path fill="#ff974b" d="M-.399 11.989l.085 12.922 5.607-14.809z"/><path fill="#ffab66" d="M-.314 24.911l-.023 2.491 1.145.879 4.897-15.164-.278-2.244-.134-.771z"/><path fill="#ff9d6e" d="M8.012 27.298L5.705 13.116.808 28.281l1.378 1.038z"/><path fill="#ffd27b" d="M5.293 10.102l8.712 14.19-6.285 3.006z"/><path fill="#f6e193" d="M5.293 10.102l12.016 5.803-3.304 8.387z"/><path fill="#d7ff6c" d="M8.572 8.387l-.668 3-2.611-1.285z"/><path fill="#bcefbc" d="M17.904 4.373l.739 3.573-10.739 3.441.668-3z"/><path fill="#3be0ff" d="M17.904 4.373l2.963 2.867 4.194-3.209-8.432-5.135z"/><path fill="#88f2ff" d="M18.643 7.946l2.224-.706-2.963-2.867z"/><path fill="#b5ecd3" d="M20.867 7.24l-1.779 4.3-.445-3.594z"/><path fill="#d4e7b7" d="M17.309 15.905l1.779-4.365-.445-3.594-10.82 3.441z"/><path fill="#37edff" d="M20.867 7.24l7.911 5.876 1.684-3.18-.127-2.76-5.274-3.145z"/><path fill="#44d6ff" d="M31.606 7.829l-2.828 5.288-4.436-3.346 4.976-3.345z"/><path fill="#00d1f0" d="M31.606 7.829l1.334.823-.03 1.968-2.406 2.497-.789.873-2.24-1.711z"/><path fill="#5ffbff" d="M25.868 15.535l3.847-1.787-8.848-6.508z"/><path fill="#76e4f7" d="M20.295 18.087l-1.207-6.625 1.813-4.222 4.986 8.192z"/><path fill="#b1e4dd" d="M17.309 15.905l2.986 1.925-1.207-6.29z"/><path fill="#d3d7ae" d="M14.005 24.292l3.303-8.387 3.114 1.99z"/><path fill="#efc6a5" d="M20.994 21.168l-.572-3.274-6.417 6.398z"/><path fill="#ec959b" d="M8.413 30.86l-.509-3.723 6.101-2.845z"/><path fill="#ff5870" d="M2.186 29.319l6.227 1.541-.509-3.723z"/><path fill="#ff259f" d="M2.186 29.319l6.227 1.541 1.906 3.337z"/><path fill="#ff819d" d="M14.005 24.292l.762 12.408-4.448-2.503-1.906-3.337z"/><path fill="#ffa091" d="M14.767 36.7l1.635 1.074 5.943-3.531-8.34-9.951z"/><path fill="#f7b500" d="M23.726 33.363l-1.52.834-8.201-9.905 6.989-3.124z"/><path fill="#d5b2e4" d="M20.422 17.894l3.177 2.311-2.605.963z"/><path fill="#7cc1ff" d="M25.887 15.432l1.588 3.04-3.876 1.733-3.177-2.311z"/><path fill="#46f0f7" d="M29.715 13.748v3.758l-2.24.966-1.589-3.04z"/><path fill="#66fff3" d="M29.715 17.506l3.161-2.179.047-4.854-3.208 3.275z"/><path fill="#5cf4d3" d="M32.923 20.499l-3.382-2.993 3.335-2.179z"/><path fill="#81d8cc" d="M32.923 23.29l-5.448-3.467v-1.386l2.24-.931L32.94 18.7z"/><path fill="#9cbaa3" d="M28.004 23.997l4.999 4.167-.08-4.874-6.104-4.098z"/><path fill="#63cfd6" d="M23.599 20.205l4.405 3.792-.529-5.525z"/><path fill="#feff5e" d="M29.064 30.218l3.939-2.054-4.999-4.167z"/><path fill="#e8e273" d="M23.726 33.363l5.338-3.145-1.06-6.221-4.405-3.792-2.605.963z"/></g></g><g opacity=".896"><path fill="#fff" d="M19.407 5.04a5.67 5.67 0 0 0-5.632 0L6.283 9.331c-1.744.998-2.816 2.843-2.816 4.839v8.582a5.58 5.58 0 0 0 2.816 4.839l7.492 4.291a5.67 5.67 0 0 0 5.632 0l7.492-4.291a5.58 5.58 0 0 0 2.816-4.839V14.17a5.58 5.58 0 0 0-2.816-4.839L19.407 5.04z"/><path fill="#000" d="M21.315 21.504c-.113.7-.727 1.185-1.37 1.083s-1.076-.753-.963-1.453.726-1.185 1.37-1.082 1.075.752.963 1.452m6.161-2.652c-.113.7-.727 1.184-1.371 1.082s-1.075-.752-.962-1.452.726-1.185 1.37-1.083 1.075.753.963 1.453m-4.978 6.237a1.43 1.43 0 0 0 .83.107c.273-.05.542-.165.717-.367.09-.099.184-.213.241-.341l.201-.45.237.113c.132.044.28.094.525.094a.77.77 0 0 0 .32-.05c.102-.043.196-.111.281-.19.172-.158.297-.372.366-.602.076-.23.105-.43.055-.677.105.232.127.5.085.757a1.51 1.51 0 0 1-.347.707c-.09.102-.2.189-.329.25-.13.067-.292.104-.43.102-.188-.008-.391-.041-.612-.101-.109.241-.187.387-.419.624a1.39 1.39 0 0 1-.862.403c-.318.03-.639-.039-.912-.19-.268-.159-.481-.414-.548-.708.122.274.338.405.6.519z"/><path fill="#fff" d="M20.765 21.02c-.042.243-.271.411-.512.375a.43.43 0 0 1-.36-.503.46.46 0 0 1 .512-.376.43.43 0 0 1 .36.504m6.202-2.666a.46.46 0 0 1-.513.376.43.43 0 0 1-.36-.504.46.46 0 0 1 .513-.375.43.43 0 0 1 .36.503"/></g></g></svg>